<mxfile host="app.diagrams.net" agent="Mozilla/5.0 (Windows NT 10.0; Win64; x64) AppleWebKit/537.36 (KHTML, like Gecko) Chrome/128.0.0.0 YaBrowser/24.10.0.0 Safari/537.36" version="25.0.3">
  <diagram name="Страница — 1" id="LaiITOyWWb9x2nBT1aXX">
    <mxGraphModel dx="2311" dy="137" grid="0" gridSize="10" guides="1" tooltips="1" connect="1" arrows="1" fold="1" page="0" pageScale="1" pageWidth="827" pageHeight="1169" math="0" shadow="0">
      <root>
        <mxCell id="0" />
        <mxCell id="1" parent="0" />
        <mxCell id="oAEokTOx6KuDCJNxl_yB-1" value="User" style="shape=umlActor;verticalLabelPosition=bottom;verticalAlign=top;html=1;outlineConnect=0;" parent="1" vertex="1">
          <mxGeometry x="300" y="1110" width="40" height="80" as="geometry" />
        </mxCell>
        <mxCell id="oAEokTOx6KuDCJNxl_yB-5" value="Выход из аккаунта" style="ellipse;whiteSpace=wrap;html=1;" parent="1" vertex="1">
          <mxGeometry x="480" y="1120" width="120" height="80" as="geometry" />
        </mxCell>
        <mxCell id="oAEokTOx6KuDCJNxl_yB-6" value="Поиск подкастов" style="ellipse;whiteSpace=wrap;html=1;" parent="1" vertex="1">
          <mxGeometry x="440" y="1240" width="120" height="80" as="geometry" />
        </mxCell>
        <mxCell id="oAEokTOx6KuDCJNxl_yB-7" value="Поиск по&lt;div&gt;названию&lt;div&gt;темы&lt;/div&gt;&lt;/div&gt;" style="ellipse;whiteSpace=wrap;html=1;" parent="1" vertex="1">
          <mxGeometry x="360" y="1360" width="120" height="80" as="geometry" />
        </mxCell>
        <mxCell id="oAEokTOx6KuDCJNxl_yB-8" value="Поиск по диктору" style="ellipse;whiteSpace=wrap;html=1;" parent="1" vertex="1">
          <mxGeometry x="520" y="1360" width="120" height="80" as="geometry" />
        </mxCell>
        <mxCell id="oAEokTOx6KuDCJNxl_yB-9" value="Управление&lt;div&gt;плейлистом&lt;/div&gt;" style="ellipse;whiteSpace=wrap;html=1;" parent="1" vertex="1">
          <mxGeometry x="80" y="1240" width="120" height="80" as="geometry" />
        </mxCell>
        <mxCell id="oAEokTOx6KuDCJNxl_yB-10" value="Просмотр&lt;div&gt;списка&amp;nbsp;&lt;span style=&quot;background-color: initial;&quot;&gt;доступных&lt;/span&gt;&lt;div&gt;подкастов&lt;/div&gt;&lt;/div&gt;" style="ellipse;whiteSpace=wrap;html=1;" parent="1" vertex="1">
          <mxGeometry x="80" y="1000" width="120" height="80" as="geometry" />
        </mxCell>
        <mxCell id="oAEokTOx6KuDCJNxl_yB-11" value="Прослушивание&lt;div&gt;подкастов&lt;/div&gt;" style="ellipse;whiteSpace=wrap;html=1;" parent="1" vertex="1">
          <mxGeometry x="260" y="1280" width="120" height="80" as="geometry" />
        </mxCell>
        <mxCell id="oAEokTOx6KuDCJNxl_yB-12" value="Добавление&lt;div&gt;подкаста&lt;/div&gt;&lt;div&gt;в плейлист&lt;/div&gt;" style="ellipse;whiteSpace=wrap;html=1;" parent="1" vertex="1">
          <mxGeometry y="1360" width="120" height="80" as="geometry" />
        </mxCell>
        <mxCell id="oAEokTOx6KuDCJNxl_yB-13" value="Удаление&lt;div&gt;подкаста&lt;/div&gt;&lt;div&gt;из плейлиста&lt;/div&gt;" style="ellipse;whiteSpace=wrap;html=1;" parent="1" vertex="1">
          <mxGeometry x="160" y="1360" width="120" height="80" as="geometry" />
        </mxCell>
        <mxCell id="oAEokTOx6KuDCJNxl_yB-25" value="Admin" style="shape=umlActor;verticalLabelPosition=bottom;verticalAlign=top;html=1;outlineConnect=0;" parent="1" vertex="1">
          <mxGeometry x="300" y="1820" width="40" height="80" as="geometry" />
        </mxCell>
        <mxCell id="oAEokTOx6KuDCJNxl_yB-38" value="Управление&lt;div&gt;аккаунтом&lt;/div&gt;" style="ellipse;whiteSpace=wrap;html=1;" parent="1" vertex="1">
          <mxGeometry x="260" y="960" width="120" height="80" as="geometry" />
        </mxCell>
        <mxCell id="oAEokTOx6KuDCJNxl_yB-41" value="Добавление" style="ellipse;whiteSpace=wrap;html=1;" parent="1" vertex="1">
          <mxGeometry x="100" y="1520" width="120" height="80" as="geometry" />
        </mxCell>
        <mxCell id="oAEokTOx6KuDCJNxl_yB-42" value="Изменение" style="ellipse;whiteSpace=wrap;html=1;" parent="1" vertex="1">
          <mxGeometry x="260" y="1480" width="120" height="80" as="geometry" />
        </mxCell>
        <mxCell id="oAEokTOx6KuDCJNxl_yB-43" value="Удаление" style="ellipse;whiteSpace=wrap;html=1;" parent="1" vertex="1">
          <mxGeometry x="420" y="1520" width="120" height="80" as="geometry" />
        </mxCell>
        <mxCell id="oAEokTOx6KuDCJNxl_yB-44" value="Управление&lt;div&gt;дикторами&lt;/div&gt;" style="ellipse;whiteSpace=wrap;html=1;" parent="1" vertex="1">
          <mxGeometry x="80" y="1820" width="120" height="80" as="geometry" />
        </mxCell>
        <mxCell id="oAEokTOx6KuDCJNxl_yB-45" value="Управление&lt;div&gt;темами&lt;/div&gt;" style="ellipse;whiteSpace=wrap;html=1;" parent="1" vertex="1">
          <mxGeometry x="440" y="1820" width="120" height="80" as="geometry" />
        </mxCell>
        <mxCell id="oAEokTOx6KuDCJNxl_yB-46" value="Добавление" style="ellipse;whiteSpace=wrap;html=1;" parent="1" vertex="1">
          <mxGeometry x="-80" y="1720" width="120" height="80" as="geometry" />
        </mxCell>
        <mxCell id="oAEokTOx6KuDCJNxl_yB-47" value="Изменение" style="ellipse;whiteSpace=wrap;html=1;" parent="1" vertex="1">
          <mxGeometry x="-140" y="1820" width="120" height="80" as="geometry" />
        </mxCell>
        <mxCell id="oAEokTOx6KuDCJNxl_yB-48" value="Удаление" style="ellipse;whiteSpace=wrap;html=1;" parent="1" vertex="1">
          <mxGeometry x="-80" y="1920" width="120" height="80" as="geometry" />
        </mxCell>
        <mxCell id="oAEokTOx6KuDCJNxl_yB-49" value="Добавление" style="ellipse;whiteSpace=wrap;html=1;" parent="1" vertex="1">
          <mxGeometry x="600" y="1720" width="120" height="80" as="geometry" />
        </mxCell>
        <mxCell id="oAEokTOx6KuDCJNxl_yB-50" value="Изменение" style="ellipse;whiteSpace=wrap;html=1;" parent="1" vertex="1">
          <mxGeometry x="660" y="1820" width="120" height="80" as="geometry" />
        </mxCell>
        <mxCell id="oAEokTOx6KuDCJNxl_yB-51" value="Удаление" style="ellipse;whiteSpace=wrap;html=1;" parent="1" vertex="1">
          <mxGeometry x="600" y="1920" width="120" height="80" as="geometry" />
        </mxCell>
        <mxCell id="oAEokTOx6KuDCJNxl_yB-52" value="Импорт/экспорт&lt;div&gt;информации&lt;/div&gt;&lt;div&gt;из XML&lt;/div&gt;" style="ellipse;whiteSpace=wrap;html=1;" parent="1" vertex="1">
          <mxGeometry x="80" y="1620" width="120" height="80" as="geometry" />
        </mxCell>
        <mxCell id="oAEokTOx6KuDCJNxl_yB-54" value="Авторизация" style="ellipse;whiteSpace=wrap;html=1;" parent="1" vertex="1">
          <mxGeometry x="440" y="1000" width="120" height="80" as="geometry" />
        </mxCell>
        <mxCell id="oAEokTOx6KuDCJNxl_yB-56" value="" style="endArrow=classic;html=1;rounded=0;entryX=0;entryY=1;entryDx=0;entryDy=0;" parent="1" target="oAEokTOx6KuDCJNxl_yB-54" edge="1">
          <mxGeometry width="50" height="50" relative="1" as="geometry">
            <mxPoint x="360" y="1120" as="sourcePoint" />
            <mxPoint x="410" y="1070" as="targetPoint" />
          </mxGeometry>
        </mxCell>
        <mxCell id="oAEokTOx6KuDCJNxl_yB-57" value="" style="endArrow=classic;html=1;rounded=0;entryX=0;entryY=0.5;entryDx=0;entryDy=0;" parent="1" target="oAEokTOx6KuDCJNxl_yB-5" edge="1">
          <mxGeometry width="50" height="50" relative="1" as="geometry">
            <mxPoint x="360" y="1160" as="sourcePoint" />
            <mxPoint x="480" y="1150" as="targetPoint" />
          </mxGeometry>
        </mxCell>
        <mxCell id="oAEokTOx6KuDCJNxl_yB-58" value="" style="endArrow=classic;html=1;rounded=0;entryX=0;entryY=0;entryDx=0;entryDy=0;" parent="1" target="oAEokTOx6KuDCJNxl_yB-6" edge="1">
          <mxGeometry width="50" height="50" relative="1" as="geometry">
            <mxPoint x="360" y="1200" as="sourcePoint" />
            <mxPoint x="450" y="1250" as="targetPoint" />
          </mxGeometry>
        </mxCell>
        <mxCell id="oAEokTOx6KuDCJNxl_yB-59" value="" style="endArrow=classic;html=1;rounded=0;entryX=0.5;entryY=0;entryDx=0;entryDy=0;" parent="1" target="oAEokTOx6KuDCJNxl_yB-11" edge="1">
          <mxGeometry width="50" height="50" relative="1" as="geometry">
            <mxPoint x="320" y="1230" as="sourcePoint" />
            <mxPoint x="480" y="1150" as="targetPoint" />
          </mxGeometry>
        </mxCell>
        <mxCell id="oAEokTOx6KuDCJNxl_yB-63" value="" style="endArrow=classic;html=1;rounded=0;entryX=1;entryY=1;entryDx=0;entryDy=0;" parent="1" edge="1">
          <mxGeometry width="50" height="50" relative="1" as="geometry">
            <mxPoint x="280" y="1120" as="sourcePoint" />
            <mxPoint x="182.4264068711932" y="1068.2842712474621" as="targetPoint" />
          </mxGeometry>
        </mxCell>
        <mxCell id="oAEokTOx6KuDCJNxl_yB-64" value="" style="endArrow=classic;html=1;rounded=0;entryX=0.5;entryY=1;entryDx=0;entryDy=0;" parent="1" target="oAEokTOx6KuDCJNxl_yB-38" edge="1">
          <mxGeometry width="50" height="50" relative="1" as="geometry">
            <mxPoint x="320" y="1090" as="sourcePoint" />
            <mxPoint x="220" y="940" as="targetPoint" />
          </mxGeometry>
        </mxCell>
        <mxCell id="oAEokTOx6KuDCJNxl_yB-65" value="" style="endArrow=classic;html=1;rounded=0;entryX=1;entryY=0;entryDx=0;entryDy=0;" parent="1" edge="1">
          <mxGeometry width="50" height="50" relative="1" as="geometry">
            <mxPoint x="280" y="1200" as="sourcePoint" />
            <mxPoint x="182.4264068711932" y="1251.715728752538" as="targetPoint" />
          </mxGeometry>
        </mxCell>
        <mxCell id="oAEokTOx6KuDCJNxl_yB-66" value="" style="endArrow=classic;html=1;rounded=0;exitX=1;exitY=1;exitDx=0;exitDy=0;entryX=0.5;entryY=0;entryDx=0;entryDy=0;dashed=1;" parent="1" source="oAEokTOx6KuDCJNxl_yB-6" target="oAEokTOx6KuDCJNxl_yB-8" edge="1">
          <mxGeometry relative="1" as="geometry">
            <mxPoint x="400" y="1180" as="sourcePoint" />
            <mxPoint x="500" y="1180" as="targetPoint" />
          </mxGeometry>
        </mxCell>
        <mxCell id="oAEokTOx6KuDCJNxl_yB-67" value="&amp;lt;&amp;lt;include&amp;gt;&amp;gt;" style="edgeLabel;resizable=0;html=1;;align=center;verticalAlign=middle;" parent="oAEokTOx6KuDCJNxl_yB-66" connectable="0" vertex="1">
          <mxGeometry relative="1" as="geometry" />
        </mxCell>
        <mxCell id="oAEokTOx6KuDCJNxl_yB-68" value="" style="endArrow=classic;html=1;rounded=0;exitX=0;exitY=1;exitDx=0;exitDy=0;entryX=0.5;entryY=0;entryDx=0;entryDy=0;dashed=1;" parent="1" source="oAEokTOx6KuDCJNxl_yB-6" target="oAEokTOx6KuDCJNxl_yB-7" edge="1">
          <mxGeometry relative="1" as="geometry">
            <mxPoint x="438.9999999999998" y="1308" as="sourcePoint" />
            <mxPoint x="400.9999999999998" y="1360" as="targetPoint" />
          </mxGeometry>
        </mxCell>
        <mxCell id="oAEokTOx6KuDCJNxl_yB-69" value="&amp;lt;&amp;lt;include&amp;gt;&amp;gt;" style="edgeLabel;resizable=0;html=1;;align=center;verticalAlign=middle;" parent="oAEokTOx6KuDCJNxl_yB-68" connectable="0" vertex="1">
          <mxGeometry relative="1" as="geometry" />
        </mxCell>
        <mxCell id="oAEokTOx6KuDCJNxl_yB-70" value="" style="endArrow=classic;html=1;rounded=0;exitX=1;exitY=1;exitDx=0;exitDy=0;entryX=0.5;entryY=0;entryDx=0;entryDy=0;dashed=1;" parent="1" edge="1">
          <mxGeometry relative="1" as="geometry">
            <mxPoint x="182" y="1308" as="sourcePoint" />
            <mxPoint x="220" y="1360" as="targetPoint" />
          </mxGeometry>
        </mxCell>
        <mxCell id="oAEokTOx6KuDCJNxl_yB-71" value="&amp;lt;&amp;lt;include&amp;gt;&amp;gt;" style="edgeLabel;resizable=0;html=1;;align=center;verticalAlign=middle;" parent="oAEokTOx6KuDCJNxl_yB-70" connectable="0" vertex="1">
          <mxGeometry relative="1" as="geometry" />
        </mxCell>
        <mxCell id="oAEokTOx6KuDCJNxl_yB-72" value="" style="endArrow=classic;html=1;rounded=0;exitX=0;exitY=1;exitDx=0;exitDy=0;entryX=0.5;entryY=0;entryDx=0;entryDy=0;dashed=1;" parent="1" edge="1">
          <mxGeometry relative="1" as="geometry">
            <mxPoint x="98" y="1308" as="sourcePoint" />
            <mxPoint x="60" y="1360" as="targetPoint" />
          </mxGeometry>
        </mxCell>
        <mxCell id="oAEokTOx6KuDCJNxl_yB-73" value="&amp;lt;&amp;lt;include&amp;gt;&amp;gt;" style="edgeLabel;resizable=0;html=1;;align=center;verticalAlign=middle;" parent="oAEokTOx6KuDCJNxl_yB-72" connectable="0" vertex="1">
          <mxGeometry relative="1" as="geometry" />
        </mxCell>
        <mxCell id="oAEokTOx6KuDCJNxl_yB-75" value="Выход из аккаунта" style="ellipse;whiteSpace=wrap;html=1;" parent="1" vertex="1">
          <mxGeometry x="440" y="1920" width="120" height="80" as="geometry" />
        </mxCell>
        <mxCell id="oAEokTOx6KuDCJNxl_yB-76" value="Поиск подкастов" style="ellipse;whiteSpace=wrap;html=1;" parent="1" vertex="1">
          <mxGeometry x="440" y="2020" width="120" height="80" as="geometry" />
        </mxCell>
        <mxCell id="oAEokTOx6KuDCJNxl_yB-77" value="Поиск по&lt;div&gt;названию&lt;div&gt;темы&lt;/div&gt;&lt;/div&gt;" style="ellipse;whiteSpace=wrap;html=1;" parent="1" vertex="1">
          <mxGeometry x="600" y="2120" width="120" height="80" as="geometry" />
        </mxCell>
        <mxCell id="oAEokTOx6KuDCJNxl_yB-78" value="Поиск по диктору" style="ellipse;whiteSpace=wrap;html=1;" parent="1" vertex="1">
          <mxGeometry x="660" y="2020" width="120" height="80" as="geometry" />
        </mxCell>
        <mxCell id="oAEokTOx6KuDCJNxl_yB-79" value="Управление&lt;div&gt;плейлистом&lt;/div&gt;" style="ellipse;whiteSpace=wrap;html=1;" parent="1" vertex="1">
          <mxGeometry x="80" y="2020" width="120" height="80" as="geometry" />
        </mxCell>
        <mxCell id="oAEokTOx6KuDCJNxl_yB-80" value="Просмотр&lt;div&gt;списка&amp;nbsp;&lt;span style=&quot;background-color: initial;&quot;&gt;доступных&lt;/span&gt;&lt;div&gt;подкастов&lt;/div&gt;&lt;/div&gt;" style="ellipse;whiteSpace=wrap;html=1;" parent="1" vertex="1">
          <mxGeometry x="80" y="1720" width="120" height="80" as="geometry" />
        </mxCell>
        <mxCell id="oAEokTOx6KuDCJNxl_yB-81" value="Управление аккаунтом" style="ellipse;whiteSpace=wrap;html=1;" parent="1" vertex="1">
          <mxGeometry x="260" y="2020" width="120" height="80" as="geometry" />
        </mxCell>
        <mxCell id="oAEokTOx6KuDCJNxl_yB-82" value="Добавление&lt;div&gt;подкаста&lt;/div&gt;&lt;div&gt;в плейлист&lt;/div&gt;" style="ellipse;whiteSpace=wrap;html=1;" parent="1" vertex="1">
          <mxGeometry x="-140" y="2020" width="120" height="80" as="geometry" />
        </mxCell>
        <mxCell id="oAEokTOx6KuDCJNxl_yB-83" value="Удаление&lt;div&gt;подкаста&lt;/div&gt;&lt;div&gt;из плейлиста&lt;/div&gt;" style="ellipse;whiteSpace=wrap;html=1;" parent="1" vertex="1">
          <mxGeometry x="-80" y="2120" width="120" height="80" as="geometry" />
        </mxCell>
        <mxCell id="oAEokTOx6KuDCJNxl_yB-84" value="Прослушивание&lt;div&gt;подкастов&lt;/div&gt;" style="ellipse;whiteSpace=wrap;html=1;" parent="1" vertex="1">
          <mxGeometry x="80" y="1920" width="120" height="80" as="geometry" />
        </mxCell>
        <mxCell id="oAEokTOx6KuDCJNxl_yB-85" value="Авторизация" style="ellipse;whiteSpace=wrap;html=1;" parent="1" vertex="1">
          <mxGeometry x="440" y="1720" width="120" height="80" as="geometry" />
        </mxCell>
        <mxCell id="oAEokTOx6KuDCJNxl_yB-86" value="" style="endArrow=classic;html=1;rounded=0;entryX=0;entryY=1;entryDx=0;entryDy=0;" parent="1" target="oAEokTOx6KuDCJNxl_yB-85" edge="1">
          <mxGeometry width="50" height="50" relative="1" as="geometry">
            <mxPoint x="360" y="1830" as="sourcePoint" />
            <mxPoint x="410" y="1790" as="targetPoint" />
          </mxGeometry>
        </mxCell>
        <mxCell id="oAEokTOx6KuDCJNxl_yB-87" value="" style="endArrow=classic;html=1;rounded=0;entryX=0;entryY=0;entryDx=0;entryDy=0;" parent="1" target="oAEokTOx6KuDCJNxl_yB-75" edge="1">
          <mxGeometry width="50" height="50" relative="1" as="geometry">
            <mxPoint x="360" y="1890" as="sourcePoint" />
            <mxPoint x="480" y="1870" as="targetPoint" />
          </mxGeometry>
        </mxCell>
        <mxCell id="oAEokTOx6KuDCJNxl_yB-88" value="" style="endArrow=classic;html=1;rounded=0;entryX=0;entryY=0;entryDx=0;entryDy=0;" parent="1" target="oAEokTOx6KuDCJNxl_yB-76" edge="1">
          <mxGeometry width="50" height="50" relative="1" as="geometry">
            <mxPoint x="360" y="1920" as="sourcePoint" />
            <mxPoint x="450" y="1970" as="targetPoint" />
          </mxGeometry>
        </mxCell>
        <mxCell id="oAEokTOx6KuDCJNxl_yB-89" value="" style="endArrow=classic;html=1;rounded=0;entryX=0.5;entryY=0;entryDx=0;entryDy=0;" parent="1" target="oAEokTOx6KuDCJNxl_yB-81" edge="1">
          <mxGeometry width="50" height="50" relative="1" as="geometry">
            <mxPoint x="320" y="1940" as="sourcePoint" />
            <mxPoint x="480" y="1870" as="targetPoint" />
          </mxGeometry>
        </mxCell>
        <mxCell id="oAEokTOx6KuDCJNxl_yB-90" value="" style="endArrow=classic;html=1;rounded=0;entryX=1;entryY=1;entryDx=0;entryDy=0;" parent="1" target="oAEokTOx6KuDCJNxl_yB-80" edge="1">
          <mxGeometry width="50" height="50" relative="1" as="geometry">
            <mxPoint x="280" y="1830" as="sourcePoint" />
            <mxPoint x="480" y="1870" as="targetPoint" />
          </mxGeometry>
        </mxCell>
        <mxCell id="oAEokTOx6KuDCJNxl_yB-91" value="" style="endArrow=classic;html=1;rounded=0;entryX=1;entryY=0;entryDx=0;entryDy=0;" parent="1" target="oAEokTOx6KuDCJNxl_yB-84" edge="1">
          <mxGeometry width="50" height="50" relative="1" as="geometry">
            <mxPoint x="280" y="1890" as="sourcePoint" />
            <mxPoint x="480" y="1870" as="targetPoint" />
          </mxGeometry>
        </mxCell>
        <mxCell id="oAEokTOx6KuDCJNxl_yB-92" value="" style="endArrow=classic;html=1;rounded=0;entryX=1;entryY=0;entryDx=0;entryDy=0;" parent="1" target="oAEokTOx6KuDCJNxl_yB-79" edge="1">
          <mxGeometry width="50" height="50" relative="1" as="geometry">
            <mxPoint x="280" y="1920" as="sourcePoint" />
            <mxPoint x="480" y="1870" as="targetPoint" />
          </mxGeometry>
        </mxCell>
        <mxCell id="oAEokTOx6KuDCJNxl_yB-93" value="" style="endArrow=classic;html=1;rounded=0;exitX=1;exitY=0.5;exitDx=0;exitDy=0;entryX=0;entryY=0.5;entryDx=0;entryDy=0;dashed=1;" parent="1" source="oAEokTOx6KuDCJNxl_yB-76" target="oAEokTOx6KuDCJNxl_yB-78" edge="1">
          <mxGeometry relative="1" as="geometry">
            <mxPoint x="400" y="1960" as="sourcePoint" />
            <mxPoint x="500" y="1960" as="targetPoint" />
          </mxGeometry>
        </mxCell>
        <mxCell id="oAEokTOx6KuDCJNxl_yB-94" value="&amp;lt;&amp;lt;include&amp;gt;&amp;gt;" style="edgeLabel;resizable=0;html=1;;align=center;verticalAlign=middle;" parent="oAEokTOx6KuDCJNxl_yB-93" connectable="0" vertex="1">
          <mxGeometry relative="1" as="geometry" />
        </mxCell>
        <mxCell id="oAEokTOx6KuDCJNxl_yB-95" value="" style="endArrow=classic;html=1;rounded=0;exitX=1;exitY=1;exitDx=0;exitDy=0;entryX=0;entryY=0;entryDx=0;entryDy=0;dashed=1;" parent="1" source="oAEokTOx6KuDCJNxl_yB-76" target="oAEokTOx6KuDCJNxl_yB-77" edge="1">
          <mxGeometry relative="1" as="geometry">
            <mxPoint x="438.9999999999998" y="2088" as="sourcePoint" />
            <mxPoint x="400.9999999999998" y="2140" as="targetPoint" />
          </mxGeometry>
        </mxCell>
        <mxCell id="oAEokTOx6KuDCJNxl_yB-96" value="&amp;lt;&amp;lt;include&amp;gt;&amp;gt;" style="edgeLabel;resizable=0;html=1;;align=center;verticalAlign=middle;" parent="oAEokTOx6KuDCJNxl_yB-95" connectable="0" vertex="1">
          <mxGeometry relative="1" as="geometry" />
        </mxCell>
        <mxCell id="oAEokTOx6KuDCJNxl_yB-97" value="" style="endArrow=classic;html=1;rounded=0;exitX=0;exitY=1;exitDx=0;exitDy=0;entryX=1;entryY=0;entryDx=0;entryDy=0;dashed=1;" parent="1" source="oAEokTOx6KuDCJNxl_yB-79" target="oAEokTOx6KuDCJNxl_yB-83" edge="1">
          <mxGeometry relative="1" as="geometry">
            <mxPoint x="182" y="2088" as="sourcePoint" />
            <mxPoint x="220" y="2140" as="targetPoint" />
          </mxGeometry>
        </mxCell>
        <mxCell id="oAEokTOx6KuDCJNxl_yB-98" value="&amp;lt;&amp;lt;include&amp;gt;&amp;gt;" style="edgeLabel;resizable=0;html=1;;align=center;verticalAlign=middle;" parent="oAEokTOx6KuDCJNxl_yB-97" connectable="0" vertex="1">
          <mxGeometry relative="1" as="geometry" />
        </mxCell>
        <mxCell id="oAEokTOx6KuDCJNxl_yB-99" value="" style="endArrow=classic;html=1;rounded=0;exitX=0;exitY=0.5;exitDx=0;exitDy=0;entryX=1;entryY=0.5;entryDx=0;entryDy=0;dashed=1;" parent="1" source="oAEokTOx6KuDCJNxl_yB-79" target="oAEokTOx6KuDCJNxl_yB-82" edge="1">
          <mxGeometry relative="1" as="geometry">
            <mxPoint x="98" y="2088" as="sourcePoint" />
            <mxPoint x="60" y="2140" as="targetPoint" />
          </mxGeometry>
        </mxCell>
        <mxCell id="oAEokTOx6KuDCJNxl_yB-100" value="&amp;lt;&amp;lt;include&amp;gt;&amp;gt;" style="edgeLabel;resizable=0;html=1;;align=center;verticalAlign=middle;" parent="oAEokTOx6KuDCJNxl_yB-99" connectable="0" vertex="1">
          <mxGeometry relative="1" as="geometry" />
        </mxCell>
        <mxCell id="oAEokTOx6KuDCJNxl_yB-101" value="" style="endArrow=classic;html=1;rounded=0;entryX=1;entryY=1;entryDx=0;entryDy=0;" parent="1" target="oAEokTOx6KuDCJNxl_yB-52" edge="1">
          <mxGeometry width="50" height="50" relative="1" as="geometry">
            <mxPoint x="280" y="1800" as="sourcePoint" />
            <mxPoint x="490" y="1740" as="targetPoint" />
          </mxGeometry>
        </mxCell>
        <mxCell id="oAEokTOx6KuDCJNxl_yB-102" value="Управление&lt;div&gt;подкастами&lt;/div&gt;" style="ellipse;whiteSpace=wrap;html=1;" parent="1" vertex="1">
          <mxGeometry x="260" y="1620" width="120" height="80" as="geometry" />
        </mxCell>
        <mxCell id="oAEokTOx6KuDCJNxl_yB-103" value="" style="endArrow=classic;html=1;rounded=0;entryX=0.5;entryY=1;entryDx=0;entryDy=0;" parent="1" target="oAEokTOx6KuDCJNxl_yB-102" edge="1">
          <mxGeometry width="50" height="50" relative="1" as="geometry">
            <mxPoint x="320" y="1800" as="sourcePoint" />
            <mxPoint x="320" y="1850" as="targetPoint" />
          </mxGeometry>
        </mxCell>
        <mxCell id="oAEokTOx6KuDCJNxl_yB-104" value="" style="endArrow=classic;html=1;rounded=0;exitX=0;exitY=0;exitDx=0;exitDy=0;entryX=1;entryY=1;entryDx=0;entryDy=0;dashed=1;" parent="1" source="oAEokTOx6KuDCJNxl_yB-102" target="oAEokTOx6KuDCJNxl_yB-41" edge="1">
          <mxGeometry relative="1" as="geometry">
            <mxPoint x="288" y="1570" as="sourcePoint" />
            <mxPoint x="250" y="1622" as="targetPoint" />
          </mxGeometry>
        </mxCell>
        <mxCell id="oAEokTOx6KuDCJNxl_yB-105" value="&amp;lt;&amp;lt;include&amp;gt;&amp;gt;" style="edgeLabel;resizable=0;html=1;;align=center;verticalAlign=middle;" parent="oAEokTOx6KuDCJNxl_yB-104" connectable="0" vertex="1">
          <mxGeometry relative="1" as="geometry" />
        </mxCell>
        <mxCell id="oAEokTOx6KuDCJNxl_yB-106" value="" style="endArrow=classic;html=1;rounded=0;exitX=0.5;exitY=0;exitDx=0;exitDy=0;entryX=0.5;entryY=1;entryDx=0;entryDy=0;dashed=1;" parent="1" source="oAEokTOx6KuDCJNxl_yB-102" target="oAEokTOx6KuDCJNxl_yB-42" edge="1">
          <mxGeometry relative="1" as="geometry">
            <mxPoint x="368" y="1662" as="sourcePoint" />
            <mxPoint x="212" y="1598" as="targetPoint" />
          </mxGeometry>
        </mxCell>
        <mxCell id="oAEokTOx6KuDCJNxl_yB-107" value="&amp;lt;&amp;lt;include&amp;gt;&amp;gt;" style="edgeLabel;resizable=0;html=1;;align=center;verticalAlign=middle;" parent="oAEokTOx6KuDCJNxl_yB-106" connectable="0" vertex="1">
          <mxGeometry relative="1" as="geometry" />
        </mxCell>
        <mxCell id="oAEokTOx6KuDCJNxl_yB-108" value="" style="endArrow=classic;html=1;rounded=0;exitX=1;exitY=0;exitDx=0;exitDy=0;entryX=0;entryY=1;entryDx=0;entryDy=0;dashed=1;" parent="1" source="oAEokTOx6KuDCJNxl_yB-102" target="oAEokTOx6KuDCJNxl_yB-43" edge="1">
          <mxGeometry relative="1" as="geometry">
            <mxPoint x="378" y="1672" as="sourcePoint" />
            <mxPoint x="222" y="1608" as="targetPoint" />
          </mxGeometry>
        </mxCell>
        <mxCell id="oAEokTOx6KuDCJNxl_yB-109" value="&amp;lt;&amp;lt;include&amp;gt;&amp;gt;" style="edgeLabel;resizable=0;html=1;;align=center;verticalAlign=middle;" parent="oAEokTOx6KuDCJNxl_yB-108" connectable="0" vertex="1">
          <mxGeometry relative="1" as="geometry" />
        </mxCell>
        <mxCell id="oAEokTOx6KuDCJNxl_yB-110" value="" style="endArrow=classic;html=1;rounded=0;entryX=1;entryY=0.5;entryDx=0;entryDy=0;" parent="1" target="oAEokTOx6KuDCJNxl_yB-44" edge="1">
          <mxGeometry width="50" height="50" relative="1" as="geometry">
            <mxPoint x="280" y="1860" as="sourcePoint" />
            <mxPoint x="140" y="1840" as="targetPoint" />
          </mxGeometry>
        </mxCell>
        <mxCell id="oAEokTOx6KuDCJNxl_yB-111" value="" style="endArrow=classic;html=1;rounded=0;entryX=0;entryY=0.5;entryDx=0;entryDy=0;" parent="1" target="oAEokTOx6KuDCJNxl_yB-45" edge="1">
          <mxGeometry width="50" height="50" relative="1" as="geometry">
            <mxPoint x="360" y="1860" as="sourcePoint" />
            <mxPoint x="410" y="1830" as="targetPoint" />
          </mxGeometry>
        </mxCell>
        <mxCell id="oAEokTOx6KuDCJNxl_yB-112" value="" style="endArrow=classic;html=1;rounded=0;exitX=0;exitY=0;exitDx=0;exitDy=0;entryX=1;entryY=1;entryDx=0;entryDy=0;dashed=1;" parent="1" source="oAEokTOx6KuDCJNxl_yB-44" target="oAEokTOx6KuDCJNxl_yB-46" edge="1">
          <mxGeometry relative="1" as="geometry">
            <mxPoint x="26" y="1760" as="sourcePoint" />
            <mxPoint x="-130" y="1717" as="targetPoint" />
          </mxGeometry>
        </mxCell>
        <mxCell id="oAEokTOx6KuDCJNxl_yB-113" value="&amp;lt;&amp;lt;include&amp;gt;&amp;gt;" style="edgeLabel;resizable=0;html=1;;align=center;verticalAlign=middle;" parent="oAEokTOx6KuDCJNxl_yB-112" connectable="0" vertex="1">
          <mxGeometry relative="1" as="geometry" />
        </mxCell>
        <mxCell id="oAEokTOx6KuDCJNxl_yB-114" value="" style="endArrow=classic;html=1;rounded=0;exitX=0;exitY=0.5;exitDx=0;exitDy=0;entryX=1;entryY=0.5;entryDx=0;entryDy=0;dashed=1;" parent="1" source="oAEokTOx6KuDCJNxl_yB-44" target="oAEokTOx6KuDCJNxl_yB-47" edge="1">
          <mxGeometry relative="1" as="geometry">
            <mxPoint x="-22" y="1813" as="sourcePoint" />
            <mxPoint x="-178" y="1770" as="targetPoint" />
          </mxGeometry>
        </mxCell>
        <mxCell id="oAEokTOx6KuDCJNxl_yB-115" value="&amp;lt;&amp;lt;include&amp;gt;&amp;gt;" style="edgeLabel;resizable=0;html=1;;align=center;verticalAlign=middle;" parent="oAEokTOx6KuDCJNxl_yB-114" connectable="0" vertex="1">
          <mxGeometry relative="1" as="geometry" />
        </mxCell>
        <mxCell id="oAEokTOx6KuDCJNxl_yB-116" value="" style="endArrow=classic;html=1;rounded=0;exitX=0;exitY=1;exitDx=0;exitDy=0;entryX=1;entryY=0;entryDx=0;entryDy=0;dashed=1;" parent="1" source="oAEokTOx6KuDCJNxl_yB-44" target="oAEokTOx6KuDCJNxl_yB-48" edge="1">
          <mxGeometry relative="1" as="geometry">
            <mxPoint x="-14" y="1853" as="sourcePoint" />
            <mxPoint x="-170" y="1810" as="targetPoint" />
          </mxGeometry>
        </mxCell>
        <mxCell id="oAEokTOx6KuDCJNxl_yB-117" value="&amp;lt;&amp;lt;include&amp;gt;&amp;gt;" style="edgeLabel;resizable=0;html=1;;align=center;verticalAlign=middle;" parent="oAEokTOx6KuDCJNxl_yB-116" connectable="0" vertex="1">
          <mxGeometry relative="1" as="geometry" />
        </mxCell>
        <mxCell id="oAEokTOx6KuDCJNxl_yB-118" value="" style="endArrow=classic;html=1;rounded=0;exitX=1;exitY=0;exitDx=0;exitDy=0;entryX=0.116;entryY=0.872;entryDx=0;entryDy=0;dashed=1;entryPerimeter=0;" parent="1" source="oAEokTOx6KuDCJNxl_yB-45" target="oAEokTOx6KuDCJNxl_yB-49" edge="1">
          <mxGeometry relative="1" as="geometry">
            <mxPoint x="764" y="1772" as="sourcePoint" />
            <mxPoint x="800" y="1728" as="targetPoint" />
          </mxGeometry>
        </mxCell>
        <mxCell id="oAEokTOx6KuDCJNxl_yB-119" value="&amp;lt;&amp;lt;include&amp;gt;&amp;gt;" style="edgeLabel;resizable=0;html=1;;align=center;verticalAlign=middle;" parent="oAEokTOx6KuDCJNxl_yB-118" connectable="0" vertex="1">
          <mxGeometry relative="1" as="geometry" />
        </mxCell>
        <mxCell id="oAEokTOx6KuDCJNxl_yB-120" value="" style="endArrow=classic;html=1;rounded=0;exitX=1;exitY=0.5;exitDx=0;exitDy=0;entryX=0;entryY=0.5;entryDx=0;entryDy=0;dashed=1;" parent="1" source="oAEokTOx6KuDCJNxl_yB-45" target="oAEokTOx6KuDCJNxl_yB-50" edge="1">
          <mxGeometry relative="1" as="geometry">
            <mxPoint x="682" y="1800" as="sourcePoint" />
            <mxPoint x="782" y="1800" as="targetPoint" />
          </mxGeometry>
        </mxCell>
        <mxCell id="oAEokTOx6KuDCJNxl_yB-121" value="&amp;lt;&amp;lt;include&amp;gt;&amp;gt;" style="edgeLabel;resizable=0;html=1;;align=center;verticalAlign=middle;" parent="oAEokTOx6KuDCJNxl_yB-120" connectable="0" vertex="1">
          <mxGeometry relative="1" as="geometry" />
        </mxCell>
        <mxCell id="oAEokTOx6KuDCJNxl_yB-122" value="" style="endArrow=classic;html=1;rounded=0;exitX=1;exitY=1;exitDx=0;exitDy=0;entryX=0;entryY=0;entryDx=0;entryDy=0;dashed=1;" parent="1" source="oAEokTOx6KuDCJNxl_yB-45" target="oAEokTOx6KuDCJNxl_yB-51" edge="1">
          <mxGeometry relative="1" as="geometry">
            <mxPoint x="764" y="1828" as="sourcePoint" />
            <mxPoint x="800" y="1872" as="targetPoint" />
          </mxGeometry>
        </mxCell>
        <mxCell id="oAEokTOx6KuDCJNxl_yB-123" value="&amp;lt;&amp;lt;include&amp;gt;&amp;gt;" style="edgeLabel;resizable=0;html=1;;align=center;verticalAlign=middle;" parent="oAEokTOx6KuDCJNxl_yB-122" connectable="0" vertex="1">
          <mxGeometry relative="1" as="geometry" />
        </mxCell>
        <mxCell id="oAEokTOx6KuDCJNxl_yB-124" value="Регистрация" style="ellipse;whiteSpace=wrap;html=1;" parent="1" vertex="1">
          <mxGeometry x="40" y="1120" width="120" height="80" as="geometry" />
        </mxCell>
        <mxCell id="oAEokTOx6KuDCJNxl_yB-125" value="" style="endArrow=classic;html=1;rounded=0;entryX=1;entryY=0.5;entryDx=0;entryDy=0;" parent="1" target="oAEokTOx6KuDCJNxl_yB-124" edge="1">
          <mxGeometry width="50" height="50" relative="1" as="geometry">
            <mxPoint x="280" y="1160" as="sourcePoint" />
            <mxPoint x="350" y="1100" as="targetPoint" />
          </mxGeometry>
        </mxCell>
        <mxCell id="oAEokTOx6KuDCJNxl_yB-126" value="Изменение логина" style="ellipse;whiteSpace=wrap;html=1;" parent="1" vertex="1">
          <mxGeometry x="260" y="840" width="120" height="80" as="geometry" />
        </mxCell>
        <mxCell id="oAEokTOx6KuDCJNxl_yB-127" value="Изменение пароля" style="ellipse;whiteSpace=wrap;html=1;" parent="1" vertex="1">
          <mxGeometry x="80" y="880" width="120" height="80" as="geometry" />
        </mxCell>
        <mxCell id="oAEokTOx6KuDCJNxl_yB-128" value="Удаление аккаунта" style="ellipse;whiteSpace=wrap;html=1;" parent="1" vertex="1">
          <mxGeometry x="440" y="880" width="120" height="80" as="geometry" />
        </mxCell>
        <mxCell id="oAEokTOx6KuDCJNxl_yB-129" value="" style="endArrow=classic;html=1;rounded=0;exitX=0;exitY=0;exitDx=0;exitDy=0;entryX=1;entryY=1;entryDx=0;entryDy=0;dashed=1;" parent="1" source="oAEokTOx6KuDCJNxl_yB-38" target="oAEokTOx6KuDCJNxl_yB-127" edge="1">
          <mxGeometry relative="1" as="geometry">
            <mxPoint x="-152" y="1108" as="sourcePoint" />
            <mxPoint x="-190" y="1160" as="targetPoint" />
          </mxGeometry>
        </mxCell>
        <mxCell id="oAEokTOx6KuDCJNxl_yB-130" value="&amp;lt;&amp;lt;include&amp;gt;&amp;gt;" style="edgeLabel;resizable=0;html=1;;align=center;verticalAlign=middle;" parent="oAEokTOx6KuDCJNxl_yB-129" connectable="0" vertex="1">
          <mxGeometry relative="1" as="geometry" />
        </mxCell>
        <mxCell id="oAEokTOx6KuDCJNxl_yB-131" value="" style="endArrow=classic;html=1;rounded=0;exitX=1;exitY=0;exitDx=0;exitDy=0;entryX=0;entryY=1;entryDx=0;entryDy=0;dashed=1;" parent="1" source="oAEokTOx6KuDCJNxl_yB-38" target="oAEokTOx6KuDCJNxl_yB-128" edge="1">
          <mxGeometry relative="1" as="geometry">
            <mxPoint x="-192" y="988" as="sourcePoint" />
            <mxPoint x="-228" y="1032" as="targetPoint" />
          </mxGeometry>
        </mxCell>
        <mxCell id="oAEokTOx6KuDCJNxl_yB-132" value="&amp;lt;&amp;lt;include&amp;gt;&amp;gt;" style="edgeLabel;resizable=0;html=1;;align=center;verticalAlign=middle;" parent="oAEokTOx6KuDCJNxl_yB-131" connectable="0" vertex="1">
          <mxGeometry relative="1" as="geometry" />
        </mxCell>
        <mxCell id="oAEokTOx6KuDCJNxl_yB-133" value="" style="endArrow=classic;html=1;rounded=0;exitX=0.5;exitY=0;exitDx=0;exitDy=0;dashed=1;entryX=0.5;entryY=1;entryDx=0;entryDy=0;" parent="1" source="oAEokTOx6KuDCJNxl_yB-38" target="oAEokTOx6KuDCJNxl_yB-126" edge="1">
          <mxGeometry relative="1" as="geometry">
            <mxPoint x="-182" y="998" as="sourcePoint" />
            <mxPoint x="330" y="910" as="targetPoint" />
          </mxGeometry>
        </mxCell>
        <mxCell id="oAEokTOx6KuDCJNxl_yB-134" value="&amp;lt;&amp;lt;include&amp;gt;&amp;gt;" style="edgeLabel;resizable=0;html=1;;align=center;verticalAlign=middle;" parent="oAEokTOx6KuDCJNxl_yB-133" connectable="0" vertex="1">
          <mxGeometry relative="1" as="geometry" />
        </mxCell>
        <mxCell id="AETLlsZNLcjdFRslFHPZ-1" value="Просмотр&lt;div&gt;информации о&lt;/div&gt;&lt;div&gt;пользователях&lt;/div&gt;" style="ellipse;whiteSpace=wrap;html=1;" parent="1" vertex="1">
          <mxGeometry x="440" y="1620" width="120" height="80" as="geometry" />
        </mxCell>
        <mxCell id="AETLlsZNLcjdFRslFHPZ-2" value="" style="endArrow=classic;html=1;rounded=0;entryX=0;entryY=1;entryDx=0;entryDy=0;" parent="1" target="AETLlsZNLcjdFRslFHPZ-1" edge="1">
          <mxGeometry width="50" height="50" relative="1" as="geometry">
            <mxPoint x="360" y="1800" as="sourcePoint" />
            <mxPoint x="550" y="1760" as="targetPoint" />
          </mxGeometry>
        </mxCell>
        <mxCell id="AETLlsZNLcjdFRslFHPZ-3" value="Изменение пароля" style="ellipse;whiteSpace=wrap;html=1;" parent="1" vertex="1">
          <mxGeometry x="400" y="2120" width="120" height="80" as="geometry" />
        </mxCell>
        <mxCell id="AETLlsZNLcjdFRslFHPZ-4" value="Изменение логина" style="ellipse;whiteSpace=wrap;html=1;" parent="1" vertex="1">
          <mxGeometry x="120" y="2120" width="120" height="80" as="geometry" />
        </mxCell>
        <mxCell id="AETLlsZNLcjdFRslFHPZ-5" value="" style="endArrow=classic;html=1;rounded=0;exitX=0;exitY=1;exitDx=0;exitDy=0;entryX=1;entryY=0;entryDx=0;entryDy=0;dashed=1;" parent="1" source="oAEokTOx6KuDCJNxl_yB-81" target="AETLlsZNLcjdFRslFHPZ-4" edge="1">
          <mxGeometry relative="1" as="geometry">
            <mxPoint x="108" y="2098" as="sourcePoint" />
            <mxPoint x="32" y="2142" as="targetPoint" />
          </mxGeometry>
        </mxCell>
        <mxCell id="AETLlsZNLcjdFRslFHPZ-6" value="&amp;lt;&amp;lt;include&amp;gt;&amp;gt;" style="edgeLabel;resizable=0;html=1;;align=center;verticalAlign=middle;" parent="AETLlsZNLcjdFRslFHPZ-5" connectable="0" vertex="1">
          <mxGeometry relative="1" as="geometry" />
        </mxCell>
        <mxCell id="AETLlsZNLcjdFRslFHPZ-7" value="" style="endArrow=classic;html=1;rounded=0;exitX=1;exitY=1;exitDx=0;exitDy=0;entryX=0;entryY=0;entryDx=0;entryDy=0;dashed=1;" parent="1" source="oAEokTOx6KuDCJNxl_yB-81" target="AETLlsZNLcjdFRslFHPZ-3" edge="1">
          <mxGeometry relative="1" as="geometry">
            <mxPoint x="118" y="2108" as="sourcePoint" />
            <mxPoint x="42" y="2152" as="targetPoint" />
          </mxGeometry>
        </mxCell>
        <mxCell id="AETLlsZNLcjdFRslFHPZ-8" value="&amp;lt;&amp;lt;include&amp;gt;&amp;gt;" style="edgeLabel;resizable=0;html=1;;align=center;verticalAlign=middle;" parent="AETLlsZNLcjdFRslFHPZ-7" connectable="0" vertex="1">
          <mxGeometry relative="1" as="geometry" />
        </mxCell>
      </root>
    </mxGraphModel>
  </diagram>
</mxfile>
